<!DOCTYPE svg PUBLIC "-//W3C//DTD SVG 20010904//EN" "http://www.w3.org/TR/2001/REC-SVG-20010904/DTD/svg10.dtd">
<svg version="1.0" xmlns="http://www.w3.org/2000/svg" width="305px" height="325px" viewBox="0 0 3050 3250" preserveAspectRatio="xMidYMid meet">
<g id="layer101" fill="#02adec" stroke="none">
 <path id="corse" stroke="black" stroke-width="5" d="M2890 3220 c-19 -17 -41 -30 -48 -30 -11 0 -13 -8 -8 -30 4 -22 2 -30 -9 -30 -20 0 -29 -20 -16 -33 18 -18 13 -37 -9 -37 -24 0 -26 -17 -3 -42 16 -18 15 -19 -5 -34 -25 -18 -30 -54 -6 -54 14 0 14 -1 0 -16 -18 -17 -21 -34 -7 -34 5 0 11 -13 14 -30 5 -24 17 -34 69 -59 35 -16 74 -31 88 -33 18 -2 25 -9 25 -28 3 -65 5 -71 23 -68 13 2 18 17 24 68 3 36 11 103 16 150 9 77 9 89 -10 125 -11 22 -20 56 -19 75 1 33 -31 130 -52 158 -14 18 -28 14 -67 -18z"/>
 <path id="med" stroke="black" stroke-width="5" d="M1500 2835 c0 -8 -11 -17 -25 -21 -19 -5 -24 -11 -20 -24 7 -22 -21 -34 -58 -25 -19 5 -26 2 -29 -10 -2 -12 -14 -18 -37 -20 -18 -2 -36 -7 -40 -12 -10 -14 -62 -34 -73 -27 -5 4 -8 16 -6 28 4 20 0 23 -35 25 -21 1 -46 -4 -55 -11 -12 -10 -16 -10 -19 0 -8 21 -49 13 -78 -15 -19 -19 -29 -24 -32 -15 -3 6 -16 12 -30 12 -26 0 -45 -14 -56 -42 -6 -16 -37 -24 -75 -19 -8 1 -20 -4 -29 -11 -9 -7 -30 -11 -47 -9 -30 3 -30 2 -13 -16 27 -30 21 -42 -28 -55 -25 -7 -45 -15 -45 -18 1 -6 85 -60 95 -60 4 0 26 16 48 36 35 32 44 35 77 30 34 -5 42 -2 69 25 28 28 35 30 75 24 33 -5 51 -3 68 9 29 20 123 21 162 1 39 -20 65 -19 106 6 45 28 141 31 188 6 32 -17 33 -17 56 6 22 22 23 28 13 65 -14 54 7 88 60 97 57 10 73 15 73 26 0 13 -28 11 -32 -3 -3 -7 -11 -9 -24 -3 -10 4 -22 7 -26 7 -5 -1 -8 2 -8 7 0 16 -30 21 -58 9 -43 -17 -73 -18 -79 -2 -7 19 -33 18 -33 -1z"/>
 <path id="centre"  stroke="black" stroke-width="5" d="M1551 2538 c-33 -9 -33 -10 -28 -54 2 -25 12 -53 22 -64 29 -31 25 -94 -8 -128 -33 -34 -36 -78 -7 -87 29 -9 25 -34 -15 -84 -21 -26 -35 -55 -35 -72 0 -21 -8 -33 -31 -46 -29 -17 -30 -20 -24 -68 3 -27 1 -72 -5 -100 -24 -113 -24 -127 -5 -142 25 -18 80 -17 95 2 18 22 31 19 104 -25 100 -61 123 -53 133 47 8 78 18 97 43 80 11 -6 20 -23 20 -36 0 -45 34 -133 57 -148 28 -19 63 -2 63 31 0 13 9 31 19 40 18 16 20 16 35 -6 9 -12 16 -36 16 -52 0 -50 52 -73 85 -36 16 18 16 22 2 58 -12 30 -13 48 -6 83 6 24 8 54 6 67 -2 12 0 25 4 28 5 3 9 25 9 50 0 24 9 70 20 101 24 69 24 76 4 119 -14 28 -22 34 -49 34 -48 0 -70 26 -84 96 -10 56 -18 68 -74 126 -37 38 -85 76 -119 93 -32 15 -65 37 -75 47 -19 22 -98 58 -122 57 -9 0 -31 -5 -50 -11z"/>
 <path id="alpesud" stroke="black" stroke-width="5" d="M2423 2433 c-35 -3 -43 -8 -43 -24 0 -16 -7 -19 -40 -19 -41 0 -80 -26 -80 -53 0 -8 -13 -25 -29 -40 -27 -23 -29 -29 -19 -55 10 -25 8 -31 -17 -56 -25 -25 -27 -32 -21 -79 12 -86 15 -95 37 -90 11 3 39 -1 62 -10 23 -8 69 -20 102 -27 33 -6 70 -16 82 -21 27 -10 61 17 91 71 10 20 29 37 43 40 24 6 39 37 22 49 -28 21 -37 97 -14 124 5 7 30 23 55 36 42 20 47 21 75 7 34 -18 46 -8 35 27 -10 35 -35 57 -63 57 -15 0 -36 6 -47 14 -29 21 -139 56 -166 54 -13 -1 -42 -3 -65 -5z"/>
 <path id="alpenord"  stroke="black" stroke-width="5" d="M2217 1979 c10 -12 9 -21 -2 -43 -19 -36 -19 -35 10 -46 15 -6 25 -17 25 -30 0 -14 7 -20 23 -20 19 0 29 -12 50 -54 15 -30 27 -68 27 -83 0 -37 17 -55 40 -43 13 7 23 3 39 -14 12 -13 21 -29 19 -36 -2 -6 9 -21 23 -32 20 -15 34 -18 58 -13 26 5 31 11 31 35 0 39 15 75 41 101 l22 22 -26 23 c-29 25 -35 52 -13 60 8 3 16 19 20 36 3 17 14 32 24 35 27 7 17 61 -14 75 -13 6 -24 15 -24 19 0 16 -51 2 -74 -20 -24 -23 -26 -23 -68 -7 -24 9 -77 20 -118 25 -41 6 -86 13 -100 17 -21 6 -23 5 -13 -7z"/>
 <path id="jura" stroke="black" stroke-width="5" d="M2275 1741 c-25 -37 -26 -44 -20 -106 6 -51 12 -69 30 -83 43 -34 72 -121 45 -137 -22 -13 -8 -35 35 -54 34 -15 49 -29 60 -54 20 -47 65 -83 129 -101 74 -22 108 -20 124 4 10 17 10 21 -4 27 -9 3 -25 1 -34 -5 -14 -9 -23 -7 -39 7 -24 21 -27 33 -7 25 8 -3 17 -1 21 5 3 6 1 11 -4 11 -6 0 -11 5 -11 11 0 11 -28 45 -81 98 -15 14 -29 36 -33 47 -4 12 -24 34 -46 49 -41 28 -46 51 -25 98 4 10 6 19 4 20 -2 2 -23 15 -45 29 -38 25 -42 31 -48 82 -4 31 -11 58 -15 61 -5 2 -21 -13 -36 -34z"/>
 <path id="vosges"  stroke="black" stroke-width="5" d="M2483 1114 l-31 -24 18 -53 c10 -28 32 -69 49 -89 17 -20 31 -45 31 -54 0 -33 24 -84 40 -84 8 0 23 16 32 35 13 26 15 41 7 67 -5 18 -7 54 -3 80 5 44 3 49 -28 81 -19 19 -46 42 -59 50 -23 15 -26 15 -56 -9z"/>
 </g>
<g id="layer102" fill="#fefefe" stroke="none">
 <path id="france" stroke="black" stroke-width="5" d="M1710 2789 c0 -6 -9 -8 -21 -4 -16 5 -19 4 -14 -5 5 -9 1 -10 -15 -5 -19 6 -22 4 -17 -9 4 -10 1 -16 -7 -16 -16 0 -14 -53 3 -74 8 -9 8 -16 2 -20 -6 -4 -7 -14 -4 -23 5 -12 2 -15 -10 -10 -11 4 -17 1 -17 -7 0 -8 -11 -13 -25 -13 -14 0 -22 4 -19 9 4 6 -2 7 -15 3 -15 -5 -21 -2 -21 9 0 19 -20 22 -20 4 0 -7 -5 -5 -11 5 -12 21 -32 22 -49 2 -11 -13 -15 -13 -22 -3 -6 11 -10 10 -17 -1 -5 -7 -14 -10 -20 -7 -6 4 -11 0 -11 -8 0 -9 -5 -16 -11 -16 -5 0 -7 5 -3 12 4 7 3 8 -4 4 -7 -4 -12 -15 -12 -24 0 -14 -2 -14 -9 -3 -6 10 -19 12 -40 8 -18 -4 -30 -3 -27 2 3 5 -1 11 -8 14 -8 3 -17 1 -20 -6 -2 -7 -5 -4 -5 6 -1 18 -21 25 -21 7 0 -5 -5 -10 -11 -10 -5 0 -7 5 -4 10 3 6 2 10 -4 10 -5 0 -12 -6 -14 -12 -4 -10 -8 -9 -16 2 -10 13 -12 13 -21 0 -9 -13 -11 -13 -20 0 -8 13 -10 12 -10 -4 0 -12 -5 -16 -15 -12 -9 3 -15 0 -15 -9 0 -18 -16 -20 -24 -2 -5 9 -7 9 -12 -1 -5 -10 -9 -9 -18 4 -14 18 -62 11 -50 -7 3 -6 -2 -9 -12 -7 -14 2 -18 -2 -16 -16 2 -11 -1 -15 -7 -11 -6 3 -11 -1 -11 -9 0 -11 -7 -15 -22 -12 -13 2 -22 9 -21 15 4 15 -14 14 -20 -1 -4 -10 -8 -9 -16 2 -10 14 -16 7 -12 -14 1 -5 -5 -6 -14 -3 -9 4 -15 1 -15 -8 0 -8 -7 -15 -15 -15 -9 0 -12 -6 -8 -17 5 -12 2 -15 -10 -10 -9 3 -17 2 -17 -3 0 -6 -4 -10 -10 -10 -5 0 -10 8 -10 17 0 12 -3 14 -11 6 -7 -7 -5 -28 10 -71 11 -33 22 -98 26 -144 8 -99 19 -134 47 -142 18 -4 19 -7 8 -20 -7 -9 -19 -16 -27 -16 -9 0 -13 -6 -10 -13 3 -8 8 -64 12 -126 l8 -112 32 31 c21 20 35 45 39 69 3 21 17 47 31 61 28 26 32 16 10 -27 -8 -15 -17 -45 -20 -65 -5 -35 -34 -69 -93 -108 l-23 -15 19 -37 c16 -31 17 -44 9 -91 -8 -44 -15 -57 -32 -61 -12 -3 -43 -17 -68 -31 -59 -34 -124 -133 -108 -164 15 -28 14 -38 -9 -61 l-20 -20 20 -20 c11 -11 20 -21 20 -23 0 -2 -25 -2 -57 1 -52 4 -56 3 -48 -14 4 -11 8 -28 9 -39 1 -17 -5 -20 -44 -18 -35 2 -41 0 -27 -8 14 -8 15 -14 7 -24 -8 -10 -20 -10 -52 -2 -36 9 -42 8 -57 -10 -17 -22 -70 -43 -106 -43 -12 0 -29 -8 -39 -19 -17 -18 -60 -18 -72 0 -11 19 -33 8 -39 -21 -5 -21 -14 -32 -33 -37 -26 -6 -25 -7 13 -17 54 -15 56 -48 5 -57 -32 -6 -33 -7 -12 -14 25 -8 26 -43 1 -36 -53 14 -59 13 -59 -8 0 -23 40 -70 62 -72 7 -1 23 -3 35 -4 13 -1 30 -8 38 -15 12 -10 19 -10 27 -2 15 15 48 16 48 2 0 -6 11 -8 26 -4 20 5 26 2 30 -13 4 -13 19 -22 47 -29 l42 -9 49 55 c27 30 53 56 57 58 3 2 21 -10 39 -25 22 -18 35 -23 38 -15 5 16 34 15 58 -3 25 -19 44 -19 44 0 0 11 12 15 49 15 56 0 73 -15 44 -39 -16 -12 -22 -33 -27 -91 -4 -49 -14 -86 -28 -110 -12 -19 -24 -56 -28 -82 -3 -27 -6 -48 -6 -48 1 0 17 4 35 10 28 8 38 6 52 -6 25 -23 41 -9 33 31 -3 19 -1 35 5 39 6 4 11 16 11 27 0 21 34 27 45 8 5 -7 12 -6 23 4 10 8 50 17 96 21 69 5 86 3 123 -15 52 -25 62 -39 34 -46 -22 -6 -24 -14 -15 -48 7 -29 80 -72 144 -86 42 -9 65 -22 105 -60 29 -27 59 -49 68 -49 20 0 21 -4 5 -29 -8 -13 -9 -29 -2 -52 6 -21 6 -51 0 -79 -7 -35 -6 -53 5 -74 18 -37 27 -42 121 -58 l77 -14 12 43 c15 53 67 104 81 79 17 -31 45 -18 60 26 10 34 20 44 48 53 24 8 36 19 38 33 3 19 10 22 51 22 51 0 76 16 65 43 -3 9 -2 22 2 29 5 7 8 22 9 32 0 31 48 41 92 21 40 -19 57 -8 47 32 -5 17 -1 24 12 29 35 11 79 37 109 64 29 27 62 36 155 44 58 5 100 18 100 31 0 6 9 20 20 30 11 10 20 24 20 31 0 20 19 27 36 13 13 -11 18 -10 25 4 12 20 38 22 73 6 22 -10 29 -8 56 15 25 20 42 26 82 26 42 0 49 3 44 16 -3 9 -6 21 -6 28 0 7 -14 28 -30 46 -17 19 -35 52 -40 74 -6 23 -19 59 -30 81 -17 35 -29 105 -33 200 -1 17 -6 36 -11 44 -8 12 -11 12 -20 -2 -46 -62 -252 16 -271 104 -4 19 -16 31 -38 39 -18 6 -33 9 -34 8 -2 -2 -10 8 -20 21 -12 18 -13 26 -5 29 7 2 12 20 12 41 0 37 -17 69 -54 106 -12 11 -21 31 -21 45 0 14 -2 29 -4 35 -17 35 1 99 36 132 19 18 22 27 13 42 -5 11 -20 21 -32 23 -15 2 -24 11 -26 25 -2 15 -13 25 -28 29 -26 7 -31 25 -11 46 16 17 20 38 7 38 -6 0 -10 7 -10 15 0 19 13 19 48 1 15 -7 63 -17 107 -21 44 -4 89 -13 100 -21 28 -20 35 -18 78 22 50 46 40 56 -13 14 -34 -27 -45 -31 -63 -22 -29 13 -121 32 -157 32 -15 0 -33 7 -40 15 -8 9 -22 12 -40 8 -27 -5 -30 -3 -43 43 -17 59 -14 108 7 130 26 25 37 52 26 59 -18 11 -11 33 20 63 17 17 30 37 30 45 0 16 65 51 79 42 15 -9 40 6 34 21 -3 8 -1 14 3 15 54 7 83 10 104 12 29 3 151 -28 159 -41 6 -9 36 -23 59 -28 26 -5 11 34 -18 46 -17 7 -35 21 -41 31 -5 11 -17 19 -25 19 -23 0 -97 78 -90 95 3 10 -1 15 -12 15 -10 0 -22 4 -28 9 -5 6 -38 12 -73 16 -55 5 -67 3 -85 -14 -12 -10 -32 -21 -46 -23 -17 -2 -26 -10 -28 -26 -3 -20 -8 -22 -36 -17 -23 5 -36 2 -45 -9 -17 -20 -41 -21 -41 -1 0 23 -47 19 -60 -5 -7 -14 -21 -20 -45 -20 -19 0 -45 -5 -59 -11 -20 -10 -30 -8 -58 9 -19 12 -43 30 -53 42 -10 11 -28 20 -41 20 -13 0 -35 15 -53 35 -32 37 -39 74 -33 178 1 20 -2 37 -8 37 -5 0 -10 -5 -10 -11z m13 -290 c15 -16 34 -29 41 -29 8 0 16 -7 20 -15 3 -8 9 -14 13 -13 26 6 123 -63 123 -88 0 -8 27 -34 35 -34 17 0 35 -32 39 -73 11 -89 34 -118 89 -112 24 3 30 -2 48 -41 21 -44 20 -91 -2 -105 -11 -6 -22 -72 -22 -131 0 -21 -3 -38 -7 -38 -3 0 -7 -17 -8 -37 -1 -21 -3 -59 -5 -85 -3 -27 -1 -48 3 -48 19 0 16 -49 -4 -66 -46 -39 -96 -10 -96 55 0 61 -41 65 -54 6 -7 -33 -41 -62 -51 -45 -4 6 -9 9 -13 7 -7 -4 -41 28 -43 41 -1 4 -6 18 -11 32 -5 14 -10 41 -10 61 1 24 -5 39 -18 47 -25 15 -29 6 -35 -68 -6 -73 -31 -106 -75 -95 -14 4 -26 11 -28 16 -2 5 -10 9 -18 9 -8 0 -14 5 -14 10 0 6 -6 10 -13 10 -7 0 -22 8 -33 18 -25 22 -45 22 -66 -2 -20 -21 -78 -18 -102 7 -13 13 -13 65 0 97 4 8 8 58 10 110 2 61 6 94 13 92 6 -1 11 2 11 8 0 5 7 10 15 10 8 0 15 6 16 13 2 42 10 72 19 75 5 2 10 10 10 18 0 8 5 14 10 14 6 0 17 14 24 32 13 30 12 33 -8 43 -33 16 -32 50 3 84 24 24 31 39 31 70 0 24 -7 46 -17 57 -10 10 -19 21 -19 26 -1 4 -2 9 -4 11 -6 7 -8 45 -4 64 14 53 151 41 207 -18z m861 -1402 c32 -31 47 -53 50 -75 2 -18 0 -34 -4 -37 -5 -3 -6 -50 0 -50 1 0 4 -19 6 -42 3 -25 1 -43 -5 -43 -5 0 -12 -13 -16 -29 -6 -26 -8 -28 -30 -17 -13 6 -23 13 -23 16 1 3 -4 18 -10 33 -7 16 -12 37 -12 48 0 11 -11 30 -24 42 -13 12 -29 41 -36 65 -7 23 -17 42 -22 42 -19 0 -6 50 18 69 38 30 55 26 108 -22z"/>
 </g>

</svg>